<?xml version="1.0" encoding="UTF-8"?>
<svg width="228px" height="37px" viewBox="0 0 228 37" version="1.1" xmlns="http://www.w3.org/2000/svg" xmlns:xlink="http://www.w3.org/1999/xlink">
    <!-- Generator: Sketch 52.6 (67491) - http://www.bohemiancoding.com/sketch -->
    <title>Untitled</title>
    <desc>Created with Sketch.</desc>
    <g id="Page-1" stroke="none" stroke-width="1" fill="none" fill-rule="evenodd">
        <polygon id="Star" fill="#F8E71C" points="20 27.3497663 8.24429495 36.1803399 13.0099568 22.2712027 0.978869674 13.8196601 15.6799157 14.0539141 20 0 24.3200843 14.0539141 39.0211303 13.8196601 26.9900432 22.2712027 31.755705 36.1803399"></polygon>
        <polygon id="Star-Copy" fill="#F8E71C" points="67 27.3497663 55.244295 36.1803399 60.0099568 22.2712027 47.9788697 13.8196601 62.6799157 14.0539141 67 0 71.3200843 14.0539141 86.0211303 13.8196601 73.9900432 22.2712027 78.755705 36.1803399"></polygon>
        <polygon id="Star-Copy-2" fill="#F8E71C" points="114 27.3497663 102.244295 36.1803399 107.009957 22.2712027 94.9788697 13.8196601 109.679916 14.0539141 114 0 118.320084 14.0539141 133.02113 13.8196601 120.990043 22.2712027 125.755705 36.1803399"></polygon>
        <path d="M161,24.8483575 L168.754785,30.6735464 L165.611062,21.4982249 L173.547506,15.9230681 L163.849793,16.0775964 L161,6.8067711 L158.150207,16.0775964 L148.452494,15.9230681 L156.388938,21.4982249 L153.245215,30.6735464 L161,24.8483575 Z M176.461031,13.8763886 L179.406421,13.8294552 L179.518063,14.1730528 L177.107605,15.8663396 L173.547506,15.9230681 L176.461031,13.8763886 Z M159.953821,3.40338555 L160.81936,0.587650142 L161.18064,0.587650142 L162.046179,3.40338555 L161,6.8067711 L159.953821,3.40338555 Z M161,27.3497663 L149.244295,36.1803399 L154.009957,22.2712027 L141.97887,13.8196601 L156.679916,14.0539141 L161,0 L165.320084,14.0539141 L180.02113,13.8196601 L167.990043,22.2712027 L172.755705,36.1803399 L161,27.3497663 Z" id="Star-Copy-3" fill="#F8E71C" fill-rule="nonzero"></path>
        <path d="M159,28.8521132 L149.244295,36.1803399 L154.009957,22.2712027 L141.97887,13.8196601 L156.679916,14.0539141 L159,6.50631484 L159,28.8521132 Z" id="Combined-Shape" fill="#F8E71C"></path>
        <path d="M208,24.8483575 L215.754785,30.6735464 L212.611062,21.4982249 L220.547506,15.9230681 L210.849793,16.0775964 L208,6.8067711 L205.150207,16.0775964 L195.452494,15.9230681 L203.388938,21.4982249 L200.245215,30.6735464 L208,24.8483575 Z M223.461031,13.8763886 L226.406421,13.8294552 L226.518063,14.1730528 L224.107605,15.8663396 L220.547506,15.9230681 L223.461031,13.8763886 Z M208,27.3497663 L196.244295,36.1803399 L201.009957,22.2712027 L188.97887,13.8196601 L203.679916,14.0539141 L208,0 L212.320084,14.0539141 L227.02113,13.8196601 L214.990043,22.2712027 L219.755705,36.1803399 L208,27.3497663 Z" id="Star-Copy-4" fill="#F8E71C" fill-rule="nonzero"></path>
    </g>
</svg>